<svg width="24" height="24" viewBox="0 0 24 24" fill="none" xmlns="http://www.w3.org/2000/svg">
<g clip-path="url(#clip0_12144_130603)">
<path fill-rule="evenodd" clip-rule="evenodd" d="M0 24L0.161572 23.678L12.0099 0L24 23.9882H22.6101L22.5421 23.8518L16.9664 23.9303L16.1803 22.301H14.6939C14.6496 22.2337 14.6128 22.1747 14.5804 22.1227C14.401 21.8349 14.3574 21.765 13.9343 21.7147C12.822 21.6564 12.6758 21.5106 12.6758 20.6587C12.6758 20.2099 12.7884 19.5304 12.8873 18.9332C12.957 18.5122 13.02 18.1321 13.032 17.9025C13.0487 17.4857 13.0255 17.2237 13.0037 16.9769C12.9885 16.8051 12.974 16.6407 12.974 16.4366C12.974 16.2264 13.0312 16.0061 13.1018 15.7341C13.1992 15.3588 13.3222 14.8852 13.3557 14.2041C13.414 13.0318 13.1422 12.186 13.1422 12.186C13.3785 12.1519 13.6707 11.9794 13.7595 11.7728C13.8748 11.4792 14.2569 9.89341 14.2569 9.24916C14.2569 8.98356 14.2268 8.75317 14.1695 8.57539C14.0168 8.19847 13.6892 8.07864 13.3727 7.96286C13.1434 7.87899 12.9199 7.79725 12.7729 7.62146C12.7566 7.60269 12.7412 7.58681 12.7267 7.5719C12.6425 7.48541 12.5901 7.43148 12.5853 7.0348C12.7663 6.77419 12.822 6.38735 12.822 5.82701C12.822 5.36053 12.4693 5 11.9991 5C11.5297 5 11.1763 5.36053 11.1763 5.82701C11.1763 6.38735 11.2323 6.77419 11.4164 7.0348C11.409 7.43039 11.357 7.48511 11.275 7.57119C11.2606 7.58631 11.2453 7.60239 11.2292 7.62146C11.0817 7.79742 10.858 7.87915 10.6283 7.9631C10.3116 8.07881 9.98334 8.19873 9.82739 8.57539C9.76901 8.75317 9.74345 8.98356 9.74345 9.24916C9.74345 9.89341 10.1241 11.4792 10.2395 11.7728C10.33 11.9794 10.6191 12.1519 10.8564 12.186C10.8564 12.186 10.5839 13.0318 10.6447 14.2041C10.6783 14.8848 10.8006 15.3583 10.8974 15.7335C10.9677 16.0057 11.0247 16.2262 11.0247 16.4366C11.0247 16.6406 11.0098 16.805 10.9944 16.9766C10.9721 17.2235 10.9485 17.4856 10.9656 17.9025C10.9777 18.1321 11.0415 18.5123 11.1121 18.9333C11.2123 19.5305 11.3262 20.2099 11.3262 20.6587C11.3262 21.5106 11.1763 21.6564 10.063 21.7147C9.64139 21.765 9.59768 21.8349 9.41789 22.1226C9.3854 22.1745 9.34847 22.2336 9.30406 22.301H7.82007L7 24H1.39533H0Z" fill="white"/>
</g>
<defs>
<clipPath id="clip0_12144_130603">
<rect width="24" height="24" fill="white"/>
</clipPath>
</defs>
</svg>
